<?xml version="1.0" encoding="UTF-8" standalone="no"?>
<!-- Created with Inkscape (http://www.inkscape.org/) -->

<svg
   xmlns:dc="http://purl.org/dc/elements/1.1/"
   xmlns:cc="http://creativecommons.org/ns#"
   xmlns:rdf="http://www.w3.org/1999/02/22-rdf-syntax-ns#"
   xmlns:svg="http://www.w3.org/2000/svg"
   xmlns="http://www.w3.org/2000/svg"
   xmlns:sodipodi="http://sodipodi.sourceforge.net/DTD/sodipodi-0.dtd"
   xmlns:inkscape="http://www.inkscape.org/namespaces/inkscape"
   sodipodi:docname="splash.svg"
   inkscape:version="0.48.4 r9939"
   version="1.1"
   id="svg2"
   height="524.15625"
   width="745.09375"
   inkscape:export-filename="/home/knielsen/code/cinfdata_app/cinfdata/data/splash.png"
   inkscape:export-xdpi="55"
   inkscape:export-ydpi="55">
  <sodipodi:namedview
     id="base"
     pagecolor="#ffffff"
     bordercolor="#666666"
     borderopacity="1.0"
     inkscape:pageopacity="0.0"
     inkscape:pageshadow="2"
     inkscape:zoom="0.5"
     inkscape:cx="323.80155"
     inkscape:cy="331.60031"
     inkscape:document-units="px"
     inkscape:current-layer="layer1"
     showgrid="false"
     inkscape:window-width="926"
     inkscape:window-height="664"
     inkscape:window-x="65"
     inkscape:window-y="49"
     inkscape:window-maximized="0"
     showguides="true"
     inkscape:guide-bbox="true"
     inkscape:snap-grids="true"
     fit-margin-top="0"
     fit-margin-left="0"
     fit-margin-right="0"
     fit-margin-bottom="0">
    <sodipodi:guide
       orientation="0,1"
       position="-63.919643,263.77652"
       id="guide3645" />
  </sodipodi:namedview>
  <defs
     id="defs4">
    <marker
       inkscape:stockid="Arrow1Mstart"
       orient="auto"
       refY="0"
       refX="0"
       id="Arrow1Mstart"
       style="overflow:visible">
      <path
         id="path4533"
         d="M 0,0 5,-5 -12.5,0 5,5 0,0 z"
         style="fill-rule:evenodd;stroke:#000000;stroke-width:1pt"
         transform="matrix(0.4,0,0,0.4,4,0)"
         inkscape:connector-curvature="0" />
    </marker>
    <marker
       inkscape:stockid="Arrow1Lend"
       orient="auto"
       refY="0"
       refX="0"
       id="Arrow1Lend"
       style="overflow:visible">
      <path
         id="path4530"
         d="M 0,0 5,-5 -12.5,0 5,5 0,0 z"
         style="fill-rule:evenodd;stroke:#000000;stroke-width:1pt"
         transform="matrix(-0.8,0,0,-0.8,-10,0)"
         inkscape:connector-curvature="0" />
    </marker>
    <marker
       inkscape:stockid="Arrow1Lstart"
       orient="auto"
       refY="0"
       refX="0"
       id="Arrow1Lstart"
       style="overflow:visible">
      <path
         id="path4527"
         d="M 0,0 5,-5 -12.5,0 5,5 0,0 z"
         style="fill-rule:evenodd;stroke:#000000;stroke-width:1pt"
         transform="matrix(0.8,0,0,0.8,10,0)"
         inkscape:connector-curvature="0" />
    </marker>
    <inkscape:path-effect
       effect="spiro"
       id="path-effect3711"
       is_visible="true" />
    <inkscape:path-effect
       effect="spiro"
       id="path-effect3707"
       is_visible="true" />
    <inkscape:path-effect
       effect="spiro"
       id="path-effect3703"
       is_visible="true" />
    <inkscape:path-effect
       effect="spiro"
       id="path-effect3699"
       is_visible="true" />
    <inkscape:path-effect
       effect="spiro"
       id="path-effect3695"
       is_visible="true" />
    <inkscape:path-effect
       effect="spiro"
       id="path-effect3691"
       is_visible="true" />
    <inkscape:perspective
       sodipodi:type="inkscape:persp3d"
       inkscape:vp_x="448.57143 : 502.20471 : 1"
       inkscape:vp_y="0 : 1000 : 0"
       inkscape:vp_z="1192.6659 : 502.20471 : 1"
       inkscape:persp3d-origin="820.61867 : 414.80314 : 1"
       id="perspective2989" />
    <filter
       id="filter3631"
       inkscape:menu-tooltip="In and out glow with a possible offset and colorizable flood"
       inkscape:menu="Shadows and Glows"
       inkscape:label="Cutout Glow"
       color-interpolation-filters="sRGB">
      <feOffset
         id="feOffset3633"
         dy="3"
         dx="3" />
      <feGaussianBlur
         id="feGaussianBlur3635"
         result="result8"
         stdDeviation="3" />
      <feFlood
         id="feFlood3637"
         flood-color="rgb(0,0,0)"
         flood-opacity="1"
         in="result8"
         result="result10" />
      <feComposite
         id="feComposite3639"
         in2="SourceGraphic"
         operator="in"
         in="result10"
         result="result9" />
      <feBlend
         id="feBlend3641"
         in2="result9"
         mode="normal"
         in="result8" />
    </filter>
    <inkscape:path-effect
       effect="spiro"
       id="path-effect3711-9"
       is_visible="true" />
    <inkscape:path-effect
       effect="spiro"
       id="path-effect3711-99"
       is_visible="true" />
    <marker
       inkscape:stockid="Arrow1Mstart"
       orient="auto"
       refY="0"
       refX="0"
       id="Arrow1Mstart-7"
       style="overflow:visible">
      <path
         inkscape:connector-curvature="0"
         id="path4533-8"
         d="M 0,0 5,-5 -12.5,0 5,5 0,0 z"
         style="fill-rule:evenodd;stroke:#000000;stroke-width:1pt"
         transform="matrix(0.4,0,0,0.4,4,0)" />
    </marker>
    <inkscape:path-effect
       effect="spiro"
       id="path-effect3711-4"
       is_visible="true" />
    <marker
       inkscape:stockid="Arrow1Mstart"
       orient="auto"
       refY="0"
       refX="0"
       id="Arrow1Mstart-78"
       style="overflow:visible">
      <path
         inkscape:connector-curvature="0"
         id="path4533-4"
         d="M 0,0 5,-5 -12.5,0 5,5 0,0 z"
         style="fill-rule:evenodd;stroke:#000000;stroke-width:1pt"
         transform="matrix(0.4,0,0,0.4,4,0)" />
    </marker>
    <inkscape:path-effect
       effect="spiro"
       id="path-effect3711-0"
       is_visible="true" />
    <marker
       inkscape:stockid="Arrow1Mstart"
       orient="auto"
       refY="0"
       refX="0"
       id="Arrow1Mstart-6"
       style="overflow:visible">
      <path
         inkscape:connector-curvature="0"
         id="path4533-5"
         d="M 0,0 5,-5 -12.5,0 5,5 0,0 z"
         style="fill-rule:evenodd;stroke:#000000;stroke-width:1pt"
         transform="matrix(0.4,0,0,0.4,4,0)" />
    </marker>
    <inkscape:path-effect
       effect="spiro"
       id="path-effect3711-2"
       is_visible="true" />
    <marker
       inkscape:stockid="Arrow1Mstart-6b"
       orient="auto"
       refY="0"
       refX="0"
       id="Arrow1Mstart-6b"
       style="overflow:visible">
      <path
         inkscape:connector-curvature="0"
         id="path6573"
         d="M 0,0 5,-5 -12.5,0 5,5 0,0 z"
         style="fill:#0000ff;fill-rule:evenodd;stroke:#0000ff;stroke-width:1pt"
         transform="matrix(0.4,0,0,0.4,4,0)" />
    </marker>
    <marker
       inkscape:stockid="Arrow1Mstart6"
       orient="auto"
       refY="0"
       refX="0"
       id="Arrow1Mstart6"
       style="overflow:visible">
      <path
         id="path6759"
         d="M 0,0 5,-5 -12.5,0 5,5 0,0 z"
         style="fill:#ff0000;fill-rule:evenodd;stroke:#ff0000;stroke-width:1pt"
         transform="matrix(0.4,0,0,0.4,4,0)"
         inkscape:connector-curvature="0" />
    </marker>
    <marker
       inkscape:stockid="Arrow1Mstart6P"
       orient="auto"
       refY="0"
       refX="0"
       id="Arrow1Mstart6P"
       style="overflow:visible">
      <path
         id="path6854"
         d="M 0,0 5,-5 -12.5,0 5,5 0,0 z"
         style="fill:#d50000;fill-rule:evenodd;stroke:#d50000;stroke-width:1pt"
         transform="matrix(0.4,0,0,0.4,4,0)"
         inkscape:connector-curvature="0" />
    </marker>
    <marker
       inkscape:stockid="Arrow1Mstart-6bN"
       orient="auto"
       refY="0"
       refX="0"
       id="Arrow1Mstart-6bN"
       style="overflow:visible">
      <path
         inkscape:connector-curvature="0"
         id="path6953"
         d="M 0,0 5,-5 -12.5,0 5,5 0,0 z"
         style="fill:#0000d5;fill-rule:evenodd;stroke:#0000d5;stroke-width:1pt"
         transform="matrix(0.4,0,0,0.4,4,0)" />
    </marker>
  </defs>
  <metadata
     id="metadata7">
    <rdf:RDF>
      <cc:Work
         rdf:about="">
        <dc:format>image/svg+xml</dc:format>
        <dc:type
           rdf:resource="http://purl.org/dc/dcmitype/StillImage" />
        <dc:title></dc:title>
      </cc:Work>
    </rdf:RDF>
  </metadata>
  <g
     inkscape:label="Layer 1"
     inkscape:groupmode="layer"
     id="layer1"
     transform="translate(-1.0625,-529.125)">
    <rect
       style="fill:#d8d8d8;fill-opacity:1;fill-rule:nonzero;stroke:#000000;stroke-width:5.01772404;stroke-miterlimit:4;stroke-opacity:1;stroke-dasharray:none"
       id="rect7013"
       width="740.07196"
       height="519.12134"
       x="3.5626585"
       y="531.63885"
       inkscape:export-filename="/home/knielsen/code/cinfdata_app/cinfdata/data/splash2.png"
       inkscape:export-xdpi="55"
       inkscape:export-ydpi="55" />
    <path
       style="font-size:40px;font-style:normal;font-weight:normal;line-height:125%;letter-spacing:0px;word-spacing:0px;fill:#000000;fill-opacity:1;stroke:none;filter:url(#filter3631);font-family:Sans"
       d="m 231.22768,760.71141 c -1.50001,0 -2.78907,0.5469 -3.84375,1.625 -1.05469,1.0547 -1.5625,2.3125 -1.5625,3.8125 0,1.5 0.50781,2.7891 1.5625,3.8437 1.05468,1.0547 2.34374,1.5938 3.84375,1.5938 1.49999,0 2.78905,-0.5391 3.84375,-1.5938 1.07811,-1.0546 1.59373,-2.3437 1.59375,-3.8437 -2e-5,-1.5 -0.50783,-2.7578 -1.5625,-3.8125 -1.0547,-1.0781 -2.35157,-1.625 -3.875,-1.625 z m -33.4375,0.031 c -4.5469,1e-4 -8.85158,1.1251 -12.90625,3.375 -4.03126,2.2501 -7.23438,5.4219 -9.625,9.5 -2.36719,4.0782 -3.5625,8.3907 -3.5625,12.9375 0,4.3125 1.08593,8.3672 3.21875,12.1875 2.15624,3.8203 5.18749,6.7422 9.125,8.7813 3.96092,2.039 8.47654,3.0625 13.5625,3.0625 3.86715,0 7.24215,-0.6016 10.125,-1.8438 2.90621,-1.2656 5.70308,-3.3047 8.375,-6.0937 l 0,-4.125 c -2.76567,3.2109 -5.39848,5.5 -7.90625,6.8125 -2.48441,1.3125 -5.21878,1.9687 -8.21875,1.9687 -3.65628,0 -6.64065,-0.9062 -8.9375,-2.6875 -2.29689,-1.8047 -3.98439,-4.4453 -5.0625,-7.9375 -1.07814,-3.5156 -1.62502,-7.4218 -1.625,-11.6875 -2e-5,-4.3359 0.74217,-8.2734 2.21875,-11.8125 1.14842,-2.7656 2.98435,-5.0078 5.46875,-6.7187 2.48435,-1.7109 5.21091,-2.5625 8.1875,-2.5625 3.56247,0 6.74996,1.1719 9.5625,3.4687 2.81246,2.2969 4.7187,5.5938 5.75,9.9063 l 1.375,0 0,-16.5313 -1.375,0 c -0.16411,1.1954 -0.5313,2.0626 -1.09375,2.625 -0.53911,0.5391 -1.18754,0.8126 -1.9375,0.8125 -0.58598,1e-4 -1.93754,-0.4062 -4.09375,-1.25 -3.7266,-1.4531 -7.27347,-2.1874 -10.625,-2.1875 z m 103.96875,0 c -4.21877,1e-4 -7.57814,1.1251 -10.0625,3.375 -2.46095,2.2501 -3.68751,5.0626 -3.6875,8.4375 l 0.0313,1.6563 0,2.4375 -4.78125,0 0,3.4375 4.78125,0 0,22.8125 c -1e-5,1.7812 -0.10938,2.9375 -0.34375,3.5 -0.23438,0.5625 -0.67969,1.0156 -1.3125,1.3437 -0.60938,0.3047 -1.64844,0.4766 -3.125,0.5 l 0,1.25 19.375,0 0,-1.25 c -2.01564,0.07 -3.40627,-0.3203 -4.15625,-1.1875 -0.46877,-0.5625 -0.68752,-1.9531 -0.6875,-4.1562 l 0,-22.8125 4.84375,0 0,-3.4375 -4.84375,0 0,-4.1875 -0.0937,-6.1563 c -2e-5,-1.2421 0.24217,-2.1562 0.6875,-2.7187 0.46873,-0.5625 1.03904,-0.8437 1.71875,-0.8438 0.53904,1e-4 0.99998,0.1797 1.375,0.5313 0.28123,0.2344 0.40623,0.6016 0.40625,1.0937 -2e-5,0.3516 -0.0313,0.7266 -0.125,1.125 -0.14065,0.6563 -0.21877,1.1016 -0.21875,1.3125 -2e-5,0.7735 0.35935,1.461 1.0625,2.0938 0.72654,0.6328 1.68748,0.9375 2.90625,0.9375 1.42966,0 2.57029,-0.3828 3.4375,-1.1563 0.86716,-0.7734 1.31247,-1.664 1.3125,-2.7187 -3e-5,-1.3125 -0.71878,-2.5156 -2.125,-3.5938 -1.38284,-1.0781 -3.49221,-1.6249 -6.375,-1.625 z m 23.03125,1.0938 0,1.4687 c 1.54685,1e-4 2.59373,0.1719 3.15625,0.5 0.56248,0.3282 0.96873,0.8204 1.25,1.5 0.21091,0.5157 0.31248,2.0235 0.3125,4.5313 l 0,9.9375 c -1.38284,-1.5234 -2.65627,-2.6094 -3.875,-3.2188 -1.21877,-0.6093 -2.61721,-0.9062 -4.1875,-0.9062 -2.43751,0 -4.7422,0.7266 -6.875,2.1562 -2.10938,1.4297 -3.75001,3.5313 -4.96875,6.3438 -1.21875,2.7891 -1.84375,5.9609 -1.84375,9.5 0,4.4297 1,8.1718 2.96875,11.2187 2.43749,3.75 5.74218,5.625 9.9375,5.625 1.64061,0 3.11717,-0.3672 4.40625,-1.0937 1.31248,-0.7266 2.77341,-2.1094 4.4375,-4.125 l 0,5.2187 13.90625,-2.7187 0,-1.1563 c -1.31254,-0.094 -2.24222,-0.3125 -2.78125,-0.6875 -0.51566,-0.375 -0.87503,-0.9453 -1.0625,-1.7187 -0.14066,-0.4688 -0.21878,-2.0078 -0.21875,-4.5625 l 0,-37.8125 -14.5625,0 z m 70.59375,2.7812 c -1.54689,2.836 -3.38282,5.3907 -5.46875,7.6875 -2.06251,2.2969 -4.57813,4.5079 -7.53125,6.5938 l 0,1.2187 4.3125,0 0,17.75 c -1e-5,3.5156 0.10937,5.6719 0.34375,6.4688 0.39843,1.4297 1.32031,2.7343 2.75,3.9062 1.45311,1.1485 3.22655,1.7188 5.3125,1.7188 4.26561,0 7.32029,-2.25 9.21875,-6.75 l -1.03125,-0.7813 c -1.3594,2.3203 -2.82033,3.5 -4.34375,3.5 -0.37502,0 -0.77345,-0.1719 -1.21875,-0.5 -0.44533,-0.3515 -0.75002,-0.8047 -0.9375,-1.3437 -0.16408,-0.5625 -0.25002,-1.7891 -0.25,-3.6875 l 0,-20.2813 7.78125,0 0,-3.4687 -7.78125,0 0,-12.0313 -1.15625,0 z m -128.8125,11.0315 c -1.78127,0 -3.45315,0.4375 -5,1.2812 -1.54689,0.8204 -3.15627,2.1407 -4.84375,3.9688 l 0,-4.25 -13.40625,0 0,1.2812 c 1.45312,0.1875 2.39843,0.5782 2.84375,1.1875 0.46874,0.6094 0.71874,2.1719 0.71875,4.6563 l 0,18.5625 c -1e-5,2.5312 -0.22657,4.0468 -0.625,4.5625 -0.58594,0.75 -1.55469,1.2031 -2.9375,1.3437 l 0,1.25 16.625,0 0,-1.25 c -1.24221,-0.164 -2.09377,-0.5625 -2.5625,-1.2187 -0.44533,-0.6563 -0.65627,-2.2266 -0.65625,-4.6875 l 0,-17.625 c 1.73436,-2.8828 3.60936,-4.3125 5.625,-4.3125 0.60935,0 1.13279,0.1953 1.625,0.5937 0.5156,0.375 0.88279,0.9219 1.09375,1.625 0.21091,0.7032 0.31248,2.3985 0.3125,5.0938 l 0,14.625 c -2e-5,2.3203 -0.18752,3.7578 -0.5625,4.3437 -0.53909,0.8672 -1.41409,1.3985 -2.65625,1.5625 l 0,1.25 16.625,0 0,-1.25 c -1.45316,-0.164 -2.40629,-0.5469 -2.875,-1.1562 -0.44535,-0.6328 -0.68753,-2.2188 -0.6875,-4.75 l 0,-12.8125 c -3e-5,-3.7969 -0.18753,-6.3516 -0.5625,-7.6875 -0.46878,-1.7578 -1.40628,-3.2344 -2.8125,-4.4063 -1.40628,-1.1953 -3.14847,-1.7812 -5.28125,-1.7812 z m 97.4375,0 c -2.57814,0 -5.04689,0.3984 -7.4375,1.2187 -2.39063,0.8204 -4.25782,2.0157 -5.59375,3.5625 -1.33594,1.5235 -2,3.125 -2,4.8125 0,1.1954 0.48437,2.2344 1.46875,3.125 1.00781,0.8907 2.24218,1.3438 3.71875,1.3438 1.3828,0 2.49999,-0.3906 3.34375,-1.1875 0.86717,-0.8203 1.31249,-1.8203 1.3125,-2.9688 -1e-5,-0.9375 -0.45314,-1.8984 -1.34375,-2.9062 -0.65626,-0.7266 -1.00001,-1.3516 -1,-1.8438 -1e-5,-0.5625 0.32811,-1.0468 0.9375,-1.4687 0.98436,-0.6797 2.22655,-1 3.75,-1 0.93748,0 1.78123,0.2266 2.53125,0.7187 0.74998,0.4688 1.24217,1.0313 1.5,1.6875 0.28123,0.6329 0.43748,2.2032 0.4375,4.6875 l 0,3.3125 c -7.2422,3.3282 -11.93751,5.9844 -14.09375,8 -2.15625,1.9922 -3.25,4.2422 -3.25,6.75 0,1.8516 0.63281,3.4141 1.875,4.6563 1.24218,1.2187 2.78124,1.8125 4.65625,1.8125 3.18749,0 6.80467,-1.7735 10.8125,-5.3125 0.23435,1.7812 0.88279,3.1093 1.9375,4 1.05466,0.8672 2.49997,1.3125 4.375,1.3125 1.59372,0 3.00778,-0.3828 4.25,-1.1563 1.26559,-0.7969 2.48434,-2.0781 3.65625,-3.8125 l -1.03125,-0.8437 c -0.63285,0.8672 -1.26566,1.3125 -1.875,1.3125 -0.30472,0 -0.57816,-0.094 -0.8125,-0.2813 -0.23441,-0.1875 -0.41409,-0.4687 -0.53125,-0.8437 -0.11722,-0.3985 -0.15628,-1.3438 -0.15625,-2.8438 l 0,-12.75 c -3e-5,-3.539 -0.17191,-5.8281 -0.5,-6.8125 -0.53909,-1.5468 -1.7344,-2.9687 -3.5625,-4.2812 -1.80471,-1.3359 -4.25783,-2 -7.375,-2 z m 60.0625,0 c -2.57814,0 -5.07814,0.3984 -7.46875,1.2187 -2.39063,0.8204 -4.25782,2.0157 -5.59375,3.5625 -1.33594,1.5235 -2,3.125 -2,4.8125 0,1.1954 0.48437,2.2344 1.46875,3.125 1.00781,0.8907 2.27343,1.3438 3.75,1.3438 1.3828,0 2.46874,-0.3906 3.3125,-1.1875 0.86717,-0.8203 1.31249,-1.8203 1.3125,-2.9688 -1e-5,-0.9375 -0.45314,-1.8984 -1.34375,-2.9062 -0.65626,-0.7266 -0.96876,-1.3516 -0.96875,-1.8438 -1e-5,-0.5625 0.29686,-1.0468 0.90625,-1.4687 0.98436,-0.6797 2.22655,-1 3.75,-1 0.93748,0 1.78123,0.2266 2.53125,0.7187 0.74998,0.4688 1.27342,1.0313 1.53125,1.6875 0.28123,0.6329 0.40623,2.2032 0.40625,4.6875 l 0,3.3125 c -7.2422,3.3282 -11.93751,5.9844 -14.09375,8 -2.15625,1.9922 -3.21875,4.2422 -3.21875,6.75 0,1.8516 0.60156,3.4141 1.84375,4.6563 1.24218,1.2187 2.81249,1.8125 4.6875,1.8125 3.18749,0 6.77342,-1.7735 10.78125,-5.3125 0.23435,1.7812 0.88279,3.1093 1.9375,4 1.05466,0.8672 2.53122,1.3125 4.40625,1.3125 1.59372,0 3.00778,-0.3828 4.25,-1.1563 1.26559,-0.7969 2.48434,-2.0781 3.65625,-3.8125 l -1.0625,-0.8437 c -0.63285,0.8672 -1.23441,1.3125 -1.84375,1.3125 -0.30472,0 -0.57816,-0.094 -0.8125,-0.2813 -0.23441,-0.1875 -0.41409,-0.4687 -0.53125,-0.8437 -0.11722,-0.3985 -0.18753,-1.3438 -0.1875,-2.8438 l 0,-12.75 c -3e-5,-3.539 -0.17191,-5.8281 -0.5,-6.8125 -0.53909,-1.5468 -1.70315,-2.9687 -3.53125,-4.2812 -1.80471,-1.3359 -4.25783,-2 -7.375,-2 z m 54,0 c -2.57814,0 -5.07814,0.3984 -7.46875,1.2187 -2.39063,0.8204 -4.25782,2.0157 -5.59375,3.5625 -1.33594,1.5235 -2,3.125 -2,4.8125 0,1.1954 0.48437,2.2344 1.46875,3.125 1.00781,0.8907 2.27343,1.3438 3.75,1.3438 1.3828,0 2.46874,-0.3906 3.3125,-1.1875 0.86717,-0.8203 1.31249,-1.8203 1.3125,-2.9688 -1e-5,-0.9375 -0.45314,-1.8984 -1.34375,-2.9062 -0.65626,-0.7266 -0.96876,-1.3516 -0.96875,-1.8438 -1e-5,-0.5625 0.29686,-1.0468 0.90625,-1.4687 0.98436,-0.6797 2.22655,-1 3.75,-1 0.93748,0 1.78123,0.2266 2.53125,0.7187 0.74998,0.4688 1.27342,1.0313 1.53125,1.6875 0.28123,0.6329 0.40623,2.2032 0.40625,4.6875 l 0,3.3125 c -7.2422,3.3282 -11.93751,5.9844 -14.09375,8 -2.15625,1.9922 -3.21875,4.2422 -3.21875,6.75 0,1.8516 0.60156,3.4141 1.84375,4.6563 1.24218,1.2187 2.81249,1.8125 4.6875,1.8125 3.18749,0 6.77342,-1.7735 10.78125,-5.3125 0.23435,1.7812 0.88279,3.1093 1.9375,4 1.05466,0.8672 2.53122,1.3125 4.40625,1.3125 1.59372,0 3.00778,-0.3828 4.25,-1.1563 1.26559,-0.7969 2.48434,-2.0781 3.65625,-3.8125 l -1.0625,-0.8437 c -0.63285,0.8672 -1.23441,1.3125 -1.84375,1.3125 -0.30472,0 -0.57816,-0.094 -0.8125,-0.2813 -0.23441,-0.1875 -0.41409,-0.4687 -0.53125,-0.8437 -0.11722,-0.3985 -0.18753,-1.3438 -0.1875,-2.8438 l 0,-12.75 c -3e-5,-3.539 -0.17191,-5.8281 -0.5,-6.8125 -0.53909,-1.5468 -1.70315,-2.9687 -3.53125,-4.2812 -1.80471,-1.3359 -4.25783,-2 -7.375,-2 z m 41.28125,0 c -2.01565,0 -3.85158,0.5547 -5.5625,1.6562 -1.19533,0.75 -2.38283,1.9688 -3.53125,3.6563 l 0,-4.3125 -13.78125,0 0,1.2812 c 1.54687,0.094 2.58593,0.4688 3.125,1.125 0.53906,0.6329 0.81249,2.1172 0.8125,4.4375 l 0,34.6875 c -1e-5,2.25 -0.21876,3.6484 -0.6875,4.1875 -0.70313,0.7734 -1.79688,1.2031 -3.25,1.25 l 0,1.2813 18.75,0 0,-1.2813 c -1.64064,0 -2.75002,-0.1562 -3.3125,-0.4375 -0.56252,-0.2812 -1.00002,-0.7344 -1.28125,-1.3437 -0.25783,-0.6094 -0.37502,-1.75 -0.375,-3.4375 l 0,-12.2188 c 1.28905,1.4766 2.51561,2.5156 3.6875,3.125 1.57029,0.7969 3.25779,1.1875 5.0625,1.1875 2.48435,0 4.73435,-0.7265 6.75,-2.1562 2.03903,-1.4532 3.60153,-3.5391 4.65625,-6.2813 1.07809,-2.7656 1.59371,-5.8281 1.59375,-9.1562 -4e-5,-3.0938 -0.50004,-5.9531 -1.53125,-8.625 -1.03128,-2.6953 -2.5391,-4.8203 -4.53125,-6.3438 -1.96878,-1.5234 -4.17971,-2.2812 -6.59375,-2.2812 z m 40.09375,0 c -2.01565,0 -3.88283,0.5547 -5.59375,1.6562 -1.19533,0.75 -2.35158,1.9688 -3.5,3.6563 l 0,-4.3125 -13.78125,0 0,1.2812 c 1.54687,0.094 2.58593,0.4688 3.125,1.125 0.53906,0.6329 0.81249,2.1172 0.8125,4.4375 l 0,34.6875 c -10e-6,2.25 -0.25001,3.6484 -0.71875,4.1875 -0.70313,0.7734 -1.76563,1.2031 -3.21875,1.25 l 0,1.2813 18.71875,0 0,-1.2813 c -1.64064,0 -2.75002,-0.1562 -3.3125,-0.4375 -0.56252,-0.2812 -0.96877,-0.7344 -1.25,-1.3437 -0.25783,-0.6094 -0.37502,-1.75 -0.375,-3.4375 l 0,-12.2188 c 1.28905,1.4766 2.51561,2.5156 3.6875,3.125 1.57029,0.7969 3.25779,1.1875 5.0625,1.1875 2.48435,0 4.73435,-0.7265 6.75,-2.1562 2.03903,-1.4532 3.57028,-3.5391 4.625,-6.2813 1.07809,-2.7656 1.62496,-5.8281 1.625,-9.1562 -4e-5,-3.0938 -0.53129,-5.9531 -1.5625,-8.625 -1.03128,-2.6953 -2.5391,-4.8203 -4.53125,-6.3438 -1.96878,-1.5234 -4.14846,-2.2812 -6.5625,-2.2812 z m -337.09375,1 0,1.2812 c 1.54687,0.094 2.61718,0.4688 3.15625,1.125 0.53906,0.6329 0.78124,2.1172 0.78125,4.4375 l 0,19.1875 c -1e-5,2.3203 -0.21876,3.7422 -0.6875,4.2813 -0.70313,0.7968 -1.79688,1.2343 -3.25,1.2812 l 0,1.25 17.78125,0 0,-1.25 c -1.57033,-0.094 -2.64845,-0.4609 -3.1875,-1.0937 -0.53908,-0.6563 -0.81252,-2.1485 -0.8125,-4.4688 l 0,-26.0312 -13.78125,0 z m 100.8125,2.4687 c 2.50779,0 4.60935,1.6719 6.34375,5 l 0,17.3125 c -1.82815,3.2344 -3.75002,4.8438 -5.8125,4.8438 -0.93752,0 -1.6797,-0.211 -2.21875,-0.6563 -1.0547,-0.8906 -1.89064,-2.3515 -2.5,-4.3437 -0.60939,-1.9922 -0.90626,-5.0703 -0.90625,-9.2188 -1e-5,-3.7734 0.27342,-6.5468 0.8125,-8.375 0.56249,-1.8281 1.2578,-3.1171 2.125,-3.8437 0.56248,-0.4688 1.28905,-0.7188 2.15625,-0.7188 z m 192.9375,0.8125 c 1.49998,0 2.7031,0.711 3.59375,2.0938 1.33591,2.0859 1.99997,5.9531 2,11.625 -3e-5,5.5312 -0.62503,9.2812 -1.84375,11.25 -0.82034,1.3359 -1.8594,2 -3.125,2 -2.29689,0 -4.45314,-1.4219 -6.46875,-4.2813 l 0,-17.5312 c 1.52342,-3.4219 3.47654,-5.1563 5.84375,-5.1563 z m 40.0625,0 c 1.49998,0 2.7031,0.711 3.59375,2.0938 1.33591,2.0859 1.99997,5.9531 2,11.625 -3e-5,5.5312 -0.59378,9.2812 -1.8125,11.25 -0.82034,1.3359 -1.8594,2 -3.125,2 -2.29689,0 -4.45314,-1.4219 -6.46875,-4.2813 l 0,-17.5312 c 1.52342,-3.4219 3.44529,-5.1563 5.8125,-5.1563 z m -190.53125,11.1563 0,11 c -1.54689,1.3125 -2.92189,1.9687 -4.09375,1.9687 -1.0547,0 -1.85158,-0.3047 -2.4375,-0.9375 -0.77345,-0.8203 -1.18751,-1.7656 -1.1875,-2.8437 -1e-5,-1.2891 0.46092,-2.5781 1.375,-3.8438 1.3828,-1.8984 3.50779,-3.6797 6.34375,-5.3437 z m 60.03125,0 0,11 c -1.54689,1.3125 -2.89064,1.9687 -4.0625,1.9687 -1.0547,0 -1.88283,-0.3047 -2.46875,-0.9375 -0.77345,-0.8203 -1.15626,-1.7656 -1.15625,-2.8437 -1e-5,-1.2891 0.46092,-2.5781 1.375,-3.8438 1.3828,-1.8984 3.47654,-3.6797 6.3125,-5.3437 z m 54,0 0,11 c -1.54689,1.3125 -2.89064,1.9687 -4.0625,1.9687 -1.0547,0 -1.88283,-0.3047 -2.46875,-0.9375 -0.77345,-0.8203 -1.15626,-1.7656 -1.15625,-2.8437 -1e-5,-1.2891 0.46092,-2.5781 1.375,-3.8438 1.3828,-1.8984 3.47654,-3.6797 6.3125,-5.3437 z"
       id="text2985"
       inkscape:connector-curvature="0"
       transform="matrix(1.3686732,0,0,1.3686732,-136.53797,-296.08748)"
       inkscape:export-filename="/home/knielsen/code/cinfdata_app/cinfdata/data/splash2.png"
       inkscape:export-xdpi="55"
       inkscape:export-ydpi="55" />
    <path
       style="fill:none;stroke:#0000d5;stroke-width:5.62699986;stroke-linecap:butt;stroke-linejoin:miter;stroke-miterlimit:4;stroke-opacity:1;stroke-dasharray:none;marker-start:url(#Arrow1Mstart-6bN)"
       d="m 714.63877,644.07636 c -41.37539,-7.48612 -83.57122,-10.42872 -125.58518,-8.75792 -59.73839,2.37567 -119.09511,14.11513 -175.24029,34.6587"
       id="path3709"
       inkscape:path-effect="#path-effect3711"
       inkscape:original-d="m 714.63877,644.07636 c 0,0 -65.56256,-70.47289 -125.58518,-8.75792 -53.22007,54.72064 -112.71674,-12.70395 -175.24029,34.6587"
       inkscape:connector-curvature="0"
       sodipodi:nodetypes="csc"
       inkscape:export-filename="/home/knielsen/code/cinfdata_app/cinfdata/data/splash2.png"
       inkscape:export-xdpi="55"
       inkscape:export-ydpi="55" />
    <text
       xml:space="preserve"
       style="font-size:64px;font-style:normal;font-variant:normal;font-weight:500;font-stretch:normal;text-align:start;line-height:125%;letter-spacing:0px;word-spacing:0px;writing-mode:lr-tb;text-anchor:start;fill:#0000d5;fill-opacity:1;stroke:none;font-family:TeX Gyre Chorus;-inkscape-font-specification:TeX Gyre Chorus Medium"
       x="327.41434"
       y="675.4693"
       id="text5745"
       sodipodi:linespacing="125%"
       transform="matrix(0.99324053,-0.11607432,0.11607432,0.99324053,0,0)"
       inkscape:export-filename="/home/knielsen/code/cinfdata_app/cinfdata/data/splash2.png"
       inkscape:export-xdpi="55"
       inkscape:export-ydpi="55"><tspan
         sodipodi:role="line"
         id="tspan5747"
         x="327.41434"
         y="675.4693">Select setup</tspan></text>
    <path
       style="fill:none;stroke:#d50000;stroke-width:5.62661457;stroke-linecap:butt;stroke-linejoin:miter;stroke-miterlimit:4;stroke-opacity:1;stroke-dasharray:none;marker-start:url(#Arrow1Mstart6P)"
       d="m 21.6523,917.47356 c 41.375389,7.48612 83.57122,10.42872 125.58518,8.75792 59.73839,-2.37567 119.09511,-14.11513 175.24029,-34.6587"
       id="path3709-1"
       inkscape:path-effect="#path-effect3711-2"
       inkscape:original-d="m 21.6523,917.47356 c 0,0 65.562557,70.47285 125.58518,8.75792 53.22007,-54.72064 112.71674,12.70395 175.24029,-34.6587"
       inkscape:connector-curvature="0"
       sodipodi:nodetypes="csc"
       inkscape:export-filename="/home/knielsen/code/cinfdata_app/cinfdata/data/splash2.png"
       inkscape:export-xdpi="55"
       inkscape:export-ydpi="55" />
    <text
       xml:space="preserve"
       style="font-size:64px;font-style:normal;font-variant:normal;font-weight:500;font-stretch:normal;text-align:start;line-height:125%;letter-spacing:0px;word-spacing:0px;writing-mode:lr-tb;text-anchor:start;fill:#d50000;fill-opacity:1;stroke:none;font-family:TeX Gyre Chorus;-inkscape-font-specification:TeX Gyre Chorus Medium"
       x="-47.38298"
       y="998.24603"
       id="text5745-4"
       sodipodi:linespacing="125%"
       transform="matrix(0.99324053,-0.11607432,0.11607432,0.99324053,0,0)"
       inkscape:export-filename="/home/knielsen/code/cinfdata_app/cinfdata/data/splash2.png"
       inkscape:export-xdpi="55"
       inkscape:export-ydpi="55"><tspan
         sodipodi:role="line"
         id="tspan5747-2"
         x="-47.38298"
         y="998.24603">Plot options</tspan></text>
  </g>
</svg>
